<svg width="64" height="8" viewBox="0 0 64 8" fill="none" xmlns="http://www.w3.org/2000/svg">
<path d="M0.432 7.168C0.504 6.72 0.596 6.244 0.708 5.74C0.828 5.228 0.928 4.744 1.008 4.288C1.072 3.96 1.12 3.652 1.152 3.364C1.192 3.076 1.212 2.832 1.212 2.632C1.212 2.496 1.2 2.38 1.176 2.284C1.176 2.284 1.124 2.304 1.02 2.344C0.924 2.376 0.812 2.416 0.684 2.464C0.564 2.512 0.46 2.56 0.372 2.608L0.444 2.368C0.7 2.24 0.98 2.084 1.284 1.9C1.596 1.708 1.852 1.54 2.052 1.396C2.116 1.5 2.148 1.712 2.148 2.032C2.148 2.4 2.108 2.852 2.028 3.388C1.956 3.916 1.872 4.432 1.776 4.936C1.84 4.808 1.908 4.684 1.98 4.564C2.06 4.436 2.136 4.308 2.208 4.18C2.272 4.076 2.376 3.916 2.52 3.7C2.672 3.484 2.848 3.248 3.048 2.992C3.248 2.728 3.452 2.476 3.66 2.236C3.876 1.996 4.08 1.8 4.272 1.648C4.472 1.488 4.64 1.404 4.776 1.396C4.832 1.5 4.86 1.664 4.86 1.888C4.86 2.016 4.852 2.168 4.836 2.344C4.82 2.512 4.796 2.688 4.764 2.872C4.716 3.184 4.644 3.52 4.548 3.88C4.452 4.232 4.368 4.58 4.296 4.924C4.44 4.66 4.624 4.38 4.848 4.084C5.072 3.788 5.316 3.5 5.58 3.22C5.852 2.94 6.124 2.684 6.396 2.452C6.676 2.22 6.94 2.036 7.188 1.9C7.38 1.788 7.6 1.684 7.848 1.588C8.104 1.492 8.336 1.404 8.544 1.324L8.592 1.432L8.412 1.504C8.228 1.584 8.056 1.744 7.896 1.984C7.736 2.224 7.588 2.508 7.452 2.836C7.324 3.164 7.208 3.508 7.104 3.868C7.008 4.22 6.928 4.56 6.864 4.888C6.8 5.208 6.752 5.476 6.72 5.692C6.976 5.316 7.276 4.936 7.62 4.552C7.964 4.16 8.3 3.852 8.628 3.628L8.712 3.76C8.576 3.848 8.4 4.008 8.184 4.24C7.976 4.472 7.764 4.736 7.548 5.032C7.332 5.328 7.144 5.62 6.984 5.908C6.824 6.188 6.732 6.428 6.708 6.628L5.76 7.108C5.752 7.06 5.744 7.008 5.736 6.952C5.736 6.888 5.736 6.828 5.736 6.772C5.736 6.484 5.764 6.148 5.82 5.764C5.884 5.38 5.964 4.984 6.06 4.576C6.156 4.168 6.26 3.784 6.372 3.424C6.484 3.056 6.592 2.748 6.696 2.5C6.536 2.628 6.344 2.812 6.12 3.052C5.904 3.284 5.68 3.556 5.448 3.868C5.216 4.172 4.992 4.492 4.776 4.828C4.568 5.156 4.392 5.484 4.248 5.812C4.104 6.132 4.012 6.424 3.972 6.688L3.012 7.132C3.084 6.7 3.172 6.248 3.276 5.776C3.388 5.304 3.488 4.848 3.576 4.408C3.648 4.056 3.708 3.716 3.756 3.388C3.812 3.06 3.84 2.82 3.84 2.668C3.84 2.588 3.836 2.54 3.828 2.524C3.532 2.764 3.248 3.076 2.976 3.46C2.704 3.844 2.456 4.252 2.232 4.684C2.016 5.108 1.832 5.504 1.68 5.872C1.528 6.232 1.428 6.516 1.38 6.724L0.432 7.168ZM8.74059 7.12C8.81259 6.664 8.90059 6.188 9.00459 5.692C9.11659 5.188 9.21259 4.708 9.29259 4.252C9.35659 3.908 9.40859 3.588 9.44859 3.292C9.49659 2.996 9.52059 2.748 9.52059 2.548C9.52059 2.484 9.52059 2.424 9.52059 2.368C9.52059 2.312 9.51259 2.264 9.49659 2.224C9.49659 2.224 9.41659 2.248 9.25659 2.296C9.10459 2.344 8.90859 2.44 8.66859 2.584L8.74059 2.344C8.89259 2.256 9.06859 2.152 9.26859 2.032C9.47659 1.912 9.68059 1.792 9.88059 1.672C10.0806 1.544 10.2446 1.432 10.3726 1.336C10.4126 1.392 10.4366 1.468 10.4446 1.564C10.4606 1.66 10.4686 1.772 10.4686 1.9C10.4686 2.116 10.4486 2.368 10.4086 2.656C10.3766 2.936 10.3326 3.24 10.2766 3.568C10.2446 3.792 10.2046 4.016 10.1566 4.24C10.1086 4.464 10.0646 4.692 10.0246 4.924C10.1686 4.66 10.3526 4.384 10.5766 4.096C10.8006 3.8 11.0446 3.512 11.3086 3.232C11.5726 2.952 11.8406 2.696 12.1126 2.464C12.3926 2.232 12.6566 2.044 12.9046 1.9C13.0966 1.796 13.3206 1.696 13.5766 1.6C13.8326 1.504 14.0606 1.416 14.2606 1.336L14.3206 1.444L14.1406 1.516C13.9486 1.596 13.7726 1.756 13.6126 1.996C13.4526 2.228 13.3046 2.508 13.1686 2.836C13.0406 3.164 12.9246 3.508 12.8206 3.868C12.7246 4.228 12.6446 4.572 12.5806 4.9C12.5166 5.22 12.4686 5.488 12.4366 5.704C12.6926 5.328 12.9926 4.944 13.3366 4.552C13.6806 4.16 14.0166 3.856 14.3446 3.64L14.4406 3.76C14.2966 3.848 14.1166 4.008 13.9006 4.24C13.6926 4.472 13.4806 4.736 13.2646 5.032C13.0486 5.328 12.8606 5.62 12.7006 5.908C12.5406 6.196 12.4486 6.44 12.4246 6.64L11.4766 7.12C11.4686 7.072 11.4646 7.024 11.4646 6.976C11.4646 6.92 11.4646 6.864 11.4646 6.808C11.4646 6.52 11.4926 6.184 11.5486 5.8C11.6126 5.408 11.6886 5.008 11.7766 4.6C11.8726 4.192 11.9766 3.804 12.0886 3.436C12.2086 3.068 12.3206 2.76 12.4246 2.512C12.2646 2.64 12.0726 2.824 11.8486 3.064C11.6326 3.296 11.4046 3.564 11.1646 3.868C10.9326 4.172 10.7086 4.492 10.4926 4.828C10.2846 5.156 10.1086 5.484 9.96459 5.812C9.82059 6.132 9.72859 6.424 9.68859 6.688L8.74059 7.12ZM18.2008 3.46L18.0568 3.364C18.0728 3.284 18.0848 3.212 18.0928 3.148C18.1088 3.076 18.1168 3.008 18.1168 2.944C18.1168 2.688 18.0408 2.492 17.8888 2.356C17.7448 2.22 17.5528 2.152 17.3128 2.152C17.0888 2.152 16.8288 2.22 16.5328 2.356L16.4728 2.26C16.8488 2.044 17.1968 1.876 17.5168 1.756C17.8448 1.636 18.1568 1.576 18.4528 1.576H18.5008C18.5888 1.576 18.6328 1.624 18.6328 1.72C18.6328 1.824 18.6128 1.948 18.5728 2.092C18.5328 2.228 18.4888 2.372 18.4408 2.524C18.4088 2.604 18.3808 2.684 18.3568 2.764C18.3328 2.836 18.3128 2.912 18.2968 2.992C18.2408 3.192 18.2088 3.348 18.2008 3.46ZM15.5848 7.012C15.3448 7.012 15.1208 6.976 14.9128 6.904C14.7048 6.832 14.5568 6.704 14.4688 6.52C14.4128 6.408 14.3728 6.28 14.3488 6.136C14.3328 5.984 14.3248 5.828 14.3248 5.668C14.3248 5.38 14.3528 5.076 14.4088 4.756C14.4728 4.428 14.5448 4.128 14.6248 3.856C14.7928 3.312 14.9808 2.896 15.1888 2.608C15.3968 2.32 15.6808 2.112 16.0408 1.984C16.0968 1.968 16.1848 1.936 16.3048 1.888C16.4328 1.84 16.5608 1.792 16.6888 1.744C16.8248 1.688 16.9328 1.648 17.0128 1.624L17.0248 1.768L16.3168 2.152C16.2128 2.208 16.1048 2.336 15.9928 2.536C15.8808 2.728 15.7768 2.96 15.6808 3.232C15.5848 3.504 15.4968 3.784 15.4168 4.072L16.1728 3.712C16.2688 3.688 16.3728 3.676 16.4848 3.676C16.5888 3.676 16.6888 3.684 16.7848 3.7C16.8888 3.716 16.9928 3.732 17.0968 3.748C17.2808 3.772 17.4688 3.784 17.6608 3.784C17.7408 3.784 17.8208 3.78 17.9008 3.772C17.9888 3.764 18.0728 3.752 18.1528 3.736L18.2008 3.82L17.0848 4.372C17.0368 4.38 16.9888 4.388 16.9408 4.396C16.9008 4.396 16.8568 4.396 16.8088 4.396C16.6168 4.396 16.4208 4.372 16.2208 4.324C16.0288 4.276 15.8368 4.252 15.6448 4.252C15.5968 4.252 15.5488 4.252 15.5008 4.252C15.4608 4.252 15.4168 4.26 15.3688 4.276C15.3288 4.468 15.2928 4.656 15.2608 4.84C15.2368 5.016 15.2248 5.184 15.2248 5.344C15.2248 5.592 15.2608 5.796 15.3328 5.956C15.4368 6.18 15.5888 6.356 15.7888 6.484C15.9888 6.604 16.2088 6.664 16.4488 6.664C16.8008 6.664 17.1488 6.52 17.4928 6.232C17.8368 5.944 18.0848 5.48 18.2368 4.84L18.4048 4.96C18.3328 5.16 18.2568 5.38 18.1768 5.62C18.0968 5.852 18.0248 6.136 17.9608 6.472C17.8808 6.6 17.7808 6.684 17.6608 6.724C17.5408 6.764 17.4048 6.784 17.2528 6.784C17.1968 6.784 17.1328 6.784 17.0608 6.784C16.9888 6.776 16.9168 6.772 16.8448 6.772C16.7328 6.828 16.5568 6.884 16.3168 6.94C16.0848 6.988 15.8408 7.012 15.5848 7.012ZM18.7843 7.228C18.9203 6.812 19.0523 6.372 19.1803 5.908C19.3083 5.444 19.4203 4.988 19.5163 4.54C19.6203 4.084 19.6963 3.66 19.7443 3.268C19.8003 2.868 19.8203 2.528 19.8043 2.248C19.7243 2.28 19.6083 2.336 19.4563 2.416C19.3123 2.488 19.2043 2.536 19.1323 2.56L19.2043 2.32C19.3323 2.272 19.4923 2.2 19.6843 2.104C19.8763 2.008 20.0723 1.904 20.2723 1.792C20.4723 1.672 20.6443 1.564 20.7883 1.468C20.8043 1.516 20.8123 1.58 20.8123 1.66C20.8123 1.844 20.7843 2.116 20.7283 2.476C20.6803 2.828 20.6163 3.22 20.5363 3.652C20.4563 4.076 20.3683 4.504 20.2723 4.936C20.1843 5.36 20.0963 5.736 20.0083 6.064C20.4163 5.768 20.7523 5.444 21.0163 5.092C21.2883 4.732 21.5163 4.348 21.7003 3.94C21.8923 3.532 22.0723 3.104 22.2403 2.656C22.3523 2.36 22.4963 2.128 22.6723 1.96C22.8563 1.792 23.0763 1.664 23.3323 1.576C23.3723 1.56 23.4443 1.536 23.5483 1.504C23.6603 1.464 23.7763 1.42 23.8963 1.372C24.0163 1.324 24.1203 1.284 24.2083 1.252C24.2963 1.22 24.3403 1.204 24.3403 1.204L24.3883 1.348L24.0643 1.492C23.8243 1.596 23.6123 1.812 23.4283 2.14C23.2443 2.46 23.0883 2.84 22.9603 3.28C22.8323 3.712 22.7323 4.16 22.6603 4.624C22.5883 5.08 22.5483 5.5 22.5403 5.884C22.6443 5.708 22.7803 5.508 22.9483 5.284C23.1243 5.06 23.3083 4.84 23.5003 4.624C23.7003 4.4 23.8923 4.204 24.0763 4.036C24.2683 3.86 24.4283 3.732 24.5563 3.652L24.6403 3.772C24.3843 3.964 24.1443 4.2 23.9203 4.48C23.6963 4.752 23.4963 5.032 23.3203 5.32C23.1443 5.608 22.9963 5.872 22.8763 6.112C22.7643 6.344 22.6883 6.52 22.6483 6.64L21.6883 7.12C21.6643 7.072 21.6523 6.94 21.6523 6.724C21.6523 6.548 21.6603 6.344 21.6763 6.112C21.6923 5.872 21.7083 5.636 21.7243 5.404C21.7483 5.172 21.7723 4.972 21.7963 4.804C21.8203 4.636 21.8403 4.532 21.8563 4.492C21.7043 4.692 21.5243 4.912 21.3163 5.152C21.1083 5.392 20.8963 5.624 20.6803 5.848C20.4723 6.064 20.2883 6.256 20.1283 6.424C19.9683 6.584 19.8563 6.688 19.7923 6.736L18.7843 7.228ZM24.1742 7.168C24.2462 6.72 24.3382 6.244 24.4502 5.74C24.5702 5.228 24.6702 4.744 24.7502 4.288C24.8142 3.96 24.8622 3.652 24.8942 3.364C24.9342 3.076 24.9542 2.832 24.9542 2.632C24.9542 2.496 24.9422 2.38 24.9182 2.284C24.9182 2.284 24.8662 2.304 24.7622 2.344C24.6662 2.376 24.5542 2.416 24.4262 2.464C24.3062 2.512 24.2022 2.56 24.1142 2.608L24.1862 2.368C24.4422 2.24 24.7222 2.084 25.0262 1.9C25.3382 1.708 25.5942 1.54 25.7942 1.396C25.8582 1.5 25.8902 1.712 25.8902 2.032C25.8902 2.4 25.8502 2.852 25.7702 3.388C25.6982 3.916 25.6142 4.432 25.5182 4.936C25.5822 4.808 25.6502 4.684 25.7222 4.564C25.8022 4.436 25.8782 4.308 25.9502 4.18C26.0142 4.076 26.1182 3.916 26.2622 3.7C26.4142 3.484 26.5902 3.248 26.7902 2.992C26.9902 2.728 27.1942 2.476 27.4022 2.236C27.6182 1.996 27.8222 1.8 28.0142 1.648C28.2142 1.488 28.3822 1.404 28.5182 1.396C28.5742 1.5 28.6022 1.664 28.6022 1.888C28.6022 2.016 28.5942 2.168 28.5782 2.344C28.5622 2.512 28.5382 2.688 28.5062 2.872C28.4582 3.184 28.3862 3.52 28.2902 3.88C28.1942 4.232 28.1102 4.58 28.0382 4.924C28.1822 4.66 28.3662 4.38 28.5902 4.084C28.8142 3.788 29.0582 3.5 29.3222 3.22C29.5942 2.94 29.8662 2.684 30.1382 2.452C30.4182 2.22 30.6822 2.036 30.9302 1.9C31.1222 1.788 31.3422 1.684 31.5902 1.588C31.8462 1.492 32.0782 1.404 32.2862 1.324L32.3342 1.432L32.1542 1.504C31.9702 1.584 31.7982 1.744 31.6382 1.984C31.4782 2.224 31.3302 2.508 31.1942 2.836C31.0662 3.164 30.9502 3.508 30.8462 3.868C30.7502 4.22 30.6702 4.56 30.6062 4.888C30.5422 5.208 30.4942 5.476 30.4622 5.692C30.7182 5.316 31.0182 4.936 31.3622 4.552C31.7062 4.16 32.0422 3.852 32.3702 3.628L32.4542 3.76C32.3182 3.848 32.1422 4.008 31.9262 4.24C31.7182 4.472 31.5062 4.736 31.2902 5.032C31.0742 5.328 30.8862 5.62 30.7262 5.908C30.5662 6.188 30.4742 6.428 30.4502 6.628L29.5022 7.108C29.4942 7.06 29.4862 7.008 29.4782 6.952C29.4782 6.888 29.4782 6.828 29.4782 6.772C29.4782 6.484 29.5062 6.148 29.5622 5.764C29.6262 5.38 29.7062 4.984 29.8022 4.576C29.8982 4.168 30.0022 3.784 30.1142 3.424C30.2262 3.056 30.3342 2.748 30.4382 2.5C30.2782 2.628 30.0862 2.812 29.8622 3.052C29.6462 3.284 29.4222 3.556 29.1902 3.868C28.9582 4.172 28.7342 4.492 28.5182 4.828C28.3102 5.156 28.1342 5.484 27.9902 5.812C27.8462 6.132 27.7542 6.424 27.7142 6.688L26.7542 7.132C26.8262 6.7 26.9142 6.248 27.0182 5.776C27.1302 5.304 27.2302 4.848 27.3182 4.408C27.3902 4.056 27.4502 3.716 27.4982 3.388C27.5542 3.06 27.5822 2.82 27.5822 2.668C27.5822 2.588 27.5782 2.54 27.5702 2.524C27.2742 2.764 26.9902 3.076 26.7182 3.46C26.4462 3.844 26.1982 4.252 25.9742 4.684C25.7582 5.108 25.5742 5.504 25.4222 5.872C25.2702 6.232 25.1702 6.516 25.1222 6.724L24.1742 7.168ZM33.7548 6.94C33.4508 6.94 33.1548 6.896 32.8668 6.808C32.5868 6.712 32.3908 6.548 32.2788 6.316C32.1988 6.148 32.1588 5.912 32.1588 5.608C32.1588 5.328 32.1868 5.028 32.2428 4.708C32.2988 4.388 32.3668 4.076 32.4468 3.772C32.5348 3.468 32.6148 3.216 32.6868 3.016C32.7908 2.736 32.9548 2.472 33.1788 2.224C33.4028 1.976 33.6988 1.78 34.0668 1.636C34.2028 1.58 34.3788 1.532 34.5948 1.492C34.8188 1.452 35.0468 1.432 35.2788 1.432C35.5908 1.432 35.8868 1.48 36.1668 1.576C36.4468 1.664 36.6468 1.828 36.7668 2.068C36.8468 2.228 36.8868 2.456 36.8868 2.752C36.8868 3.024 36.8548 3.324 36.7908 3.652C36.7348 3.98 36.6668 4.296 36.5868 4.6C36.5068 4.896 36.4268 5.148 36.3468 5.356C36.2428 5.628 36.0788 5.892 35.8548 6.148C35.6308 6.396 35.3348 6.592 34.9668 6.736C34.8308 6.792 34.6508 6.84 34.4268 6.88C34.2108 6.92 33.9868 6.94 33.7548 6.94ZM33.9348 6.664C34.1188 6.664 34.3428 6.604 34.6068 6.484C34.8388 6.372 35.0228 6.192 35.1588 5.944C35.3028 5.696 35.4148 5.424 35.4948 5.128C35.5748 4.832 35.6388 4.564 35.6868 4.324C35.7268 4.124 35.7628 3.904 35.7948 3.664C35.8268 3.424 35.8428 3.188 35.8428 2.956C35.8428 2.62 35.7908 2.332 35.6868 2.092C35.5828 1.844 35.3868 1.72 35.0988 1.72C34.9228 1.72 34.7028 1.78 34.4388 1.9C34.2148 2.004 34.0308 2.184 33.8868 2.44C33.7428 2.688 33.6308 2.96 33.5508 3.256C33.4708 3.544 33.4068 3.808 33.3588 4.048C33.3188 4.248 33.2788 4.472 33.2388 4.72C33.2068 4.96 33.1908 5.196 33.1908 5.428C33.1908 5.764 33.2428 6.056 33.3468 6.304C33.4508 6.544 33.6468 6.664 33.9348 6.664ZM37.3929 7.12C37.4649 6.664 37.5529 6.188 37.6569 5.692C37.7689 5.188 37.8649 4.708 37.9449 4.252C38.0089 3.908 38.0609 3.588 38.1009 3.292C38.1489 2.996 38.1729 2.748 38.1729 2.548C38.1729 2.484 38.1729 2.424 38.1729 2.368C38.1729 2.312 38.1649 2.264 38.1489 2.224C38.1489 2.224 38.0689 2.248 37.9089 2.296C37.7569 2.344 37.5609 2.44 37.3209 2.584L37.3929 2.344C37.5449 2.256 37.7209 2.152 37.9209 2.032C38.1289 1.912 38.3329 1.792 38.5329 1.672C38.7329 1.544 38.8969 1.432 39.0249 1.336C39.0649 1.392 39.0889 1.468 39.0969 1.564C39.1129 1.66 39.1209 1.772 39.1209 1.9C39.1209 2.116 39.1009 2.368 39.0609 2.656C39.0289 2.936 38.9849 3.24 38.9289 3.568C38.8969 3.792 38.8569 4.016 38.8089 4.24C38.7609 4.464 38.7169 4.692 38.6769 4.924C38.8209 4.66 39.0049 4.384 39.2289 4.096C39.4529 3.8 39.6969 3.512 39.9609 3.232C40.2249 2.952 40.4929 2.696 40.7649 2.464C41.0449 2.232 41.3089 2.044 41.5569 1.9C41.7489 1.796 41.9729 1.696 42.2289 1.6C42.4849 1.504 42.7129 1.416 42.9129 1.336L42.9729 1.444L42.7929 1.516C42.6009 1.596 42.4249 1.756 42.2649 1.996C42.1049 2.228 41.9569 2.508 41.8209 2.836C41.6929 3.164 41.5769 3.508 41.4729 3.868C41.3769 4.228 41.2969 4.572 41.2329 4.9C41.1689 5.22 41.1209 5.488 41.0889 5.704C41.3449 5.328 41.6449 4.944 41.9889 4.552C42.3329 4.16 42.6689 3.856 42.9969 3.64L43.0929 3.76C42.9489 3.848 42.7689 4.008 42.5529 4.24C42.3449 4.472 42.1329 4.736 41.9169 5.032C41.7009 5.328 41.5129 5.62 41.3529 5.908C41.1929 6.196 41.1009 6.44 41.0769 6.64L40.1289 7.12C40.1209 7.072 40.1169 7.024 40.1169 6.976C40.1169 6.92 40.1169 6.864 40.1169 6.808C40.1169 6.52 40.1449 6.184 40.2009 5.8C40.2649 5.408 40.3409 5.008 40.4289 4.6C40.5249 4.192 40.6289 3.804 40.7409 3.436C40.8609 3.068 40.9729 2.76 41.0769 2.512C40.9169 2.64 40.7249 2.824 40.5009 3.064C40.2849 3.296 40.0569 3.564 39.8169 3.868C39.5849 4.172 39.3609 4.492 39.1449 4.828C38.9369 5.156 38.7609 5.484 38.6169 5.812C38.4729 6.132 38.3809 6.424 38.3409 6.688L37.3929 7.12ZM44.8132 1.384C44.7172 1.384 44.6212 1.372 44.5252 1.348C44.4372 1.316 44.3372 1.272 44.2252 1.216L44.7292 0.543999C44.7932 0.575999 44.8812 0.592 44.9932 0.592C45.1692 0.592 45.3692 0.556 45.5932 0.483999C45.8172 0.404 46.0212 0.3 46.2052 0.172C46.2692 0.0679998 46.3412 0.0159998 46.4212 0.0159998C46.4692 0.0159998 46.4932 0.0399997 46.4932 0.0879996C46.4932 0.12 46.4692 0.172 46.4212 0.244C46.3732 0.316 46.2812 0.412 46.1452 0.532C46.0172 0.644 45.8772 0.764 45.7252 0.892C45.5812 1.012 45.4572 1.116 45.3532 1.204C45.2492 1.284 45.1972 1.324 45.1972 1.324C45.1252 1.34 45.0572 1.356 44.9932 1.372C44.9372 1.38 44.8772 1.384 44.8132 1.384ZM42.9292 7.12C42.9212 7.08 42.9172 7.036 42.9172 6.988C42.9172 6.932 42.9172 6.876 42.9172 6.82C42.9172 6.572 42.9332 6.276 42.9652 5.932C43.0052 5.588 43.0572 5.232 43.1212 4.864C43.1932 4.496 43.2692 4.16 43.3492 3.856C43.5092 3.312 43.6852 2.896 43.8772 2.608C44.0692 2.32 44.3452 2.112 44.7052 1.984C44.7452 1.968 44.8172 1.944 44.9212 1.912C45.0332 1.872 45.1492 1.828 45.2692 1.78C45.3892 1.732 45.4932 1.692 45.5812 1.66C45.6692 1.628 45.7132 1.612 45.7132 1.612L45.7612 1.72L45.4372 1.864C45.2932 1.928 45.1452 2.06 44.9932 2.26C44.8412 2.452 44.7012 2.68 44.5732 2.944C44.4452 3.2 44.3452 3.46 44.2732 3.724C44.1932 4.044 44.1172 4.38 44.0452 4.732C43.9732 5.076 43.9212 5.4 43.8892 5.704C44.1452 5.328 44.4412 4.948 44.7772 4.564C45.1212 4.172 45.4572 3.868 45.7852 3.652L45.8692 3.772C45.6692 3.892 45.4612 4.084 45.2452 4.348C45.0372 4.612 44.8332 4.896 44.6332 5.2C44.4412 5.504 44.2772 5.788 44.1412 6.052C44.0052 6.316 43.9172 6.516 43.8772 6.652L42.9292 7.12ZM49.9118 3.46L49.7678 3.364C49.7838 3.284 49.7958 3.212 49.8038 3.148C49.8198 3.076 49.8278 3.008 49.8278 2.944C49.8278 2.688 49.7518 2.492 49.5998 2.356C49.4558 2.22 49.2638 2.152 49.0238 2.152C48.7998 2.152 48.5398 2.22 48.2438 2.356L48.1838 2.26C48.5598 2.044 48.9078 1.876 49.2278 1.756C49.5558 1.636 49.8678 1.576 50.1638 1.576H50.2118C50.2998 1.576 50.3438 1.624 50.3438 1.72C50.3438 1.824 50.3238 1.948 50.2838 2.092C50.2438 2.228 50.1958 2.372 50.1398 2.524C50.1078 2.604 50.0798 2.684 50.0558 2.764C50.0318 2.836 50.0118 2.912 49.9958 2.992C49.9798 3.08 49.9598 3.164 49.9358 3.244C49.9198 3.324 49.9118 3.396 49.9118 3.46ZM47.0558 6.952C46.8558 6.952 46.6758 6.92 46.5158 6.856C46.3558 6.784 46.2398 6.672 46.1678 6.52C46.1118 6.408 46.0718 6.28 46.0478 6.136C46.0318 5.992 46.0238 5.84 46.0238 5.68C46.0238 5.384 46.0558 5.076 46.1198 4.756C46.1838 4.428 46.2558 4.128 46.3358 3.856C46.4958 3.312 46.6798 2.896 46.8878 2.608C47.0958 2.32 47.3838 2.112 47.7518 1.984C47.8078 1.968 47.8958 1.936 48.0158 1.888C48.1358 1.84 48.2598 1.792 48.3878 1.744C48.5238 1.688 48.6358 1.648 48.7238 1.624L48.7358 1.768L48.0278 2.152C47.9078 2.216 47.7838 2.368 47.6558 2.608C47.5278 2.84 47.4078 3.116 47.2958 3.436C47.1918 3.756 47.1038 4.084 47.0318 4.42C46.9678 4.756 46.9358 5.064 46.9358 5.344C46.9358 5.472 46.9438 5.588 46.9598 5.692C46.9758 5.788 46.9998 5.876 47.0318 5.956C47.0958 6.084 47.1998 6.176 47.3438 6.232C47.4958 6.288 47.6638 6.316 47.8478 6.316C48.0798 6.316 48.3238 6.284 48.5798 6.22C48.8438 6.148 49.0758 6.068 49.2758 5.98C49.3318 5.948 49.4158 5.9 49.5278 5.836C49.6478 5.772 49.7558 5.712 49.8518 5.656C49.9478 5.592 49.9958 5.56 49.9958 5.56L49.9598 5.764L48.8918 6.388C48.6198 6.54 48.3158 6.672 47.9798 6.784C47.6518 6.896 47.3438 6.952 47.0558 6.952ZM51.9188 6.94C51.6148 6.94 51.3188 6.896 51.0308 6.808C50.7508 6.712 50.5548 6.548 50.4428 6.316C50.3628 6.148 50.3228 5.912 50.3228 5.608C50.3228 5.328 50.3508 5.028 50.4068 4.708C50.4628 4.388 50.5308 4.076 50.6108 3.772C50.6988 3.468 50.7788 3.216 50.8508 3.016C50.9548 2.736 51.1188 2.472 51.3428 2.224C51.5668 1.976 51.8628 1.78 52.2308 1.636C52.3668 1.58 52.5428 1.532 52.7588 1.492C52.9828 1.452 53.2108 1.432 53.4428 1.432C53.7548 1.432 54.0508 1.48 54.3308 1.576C54.6108 1.664 54.8108 1.828 54.9308 2.068C55.0108 2.228 55.0508 2.456 55.0508 2.752C55.0508 3.024 55.0188 3.324 54.9548 3.652C54.8988 3.98 54.8308 4.296 54.7508 4.6C54.6708 4.896 54.5908 5.148 54.5108 5.356C54.4068 5.628 54.2428 5.892 54.0188 6.148C53.7948 6.396 53.4988 6.592 53.1308 6.736C52.9948 6.792 52.8148 6.84 52.5908 6.88C52.3748 6.92 52.1508 6.94 51.9188 6.94ZM52.0988 6.664C52.2828 6.664 52.5068 6.604 52.7708 6.484C53.0028 6.372 53.1868 6.192 53.3228 5.944C53.4668 5.696 53.5788 5.424 53.6588 5.128C53.7388 4.832 53.8028 4.564 53.8508 4.324C53.8908 4.124 53.9268 3.904 53.9588 3.664C53.9908 3.424 54.0068 3.188 54.0068 2.956C54.0068 2.62 53.9548 2.332 53.8508 2.092C53.7468 1.844 53.5508 1.72 53.2628 1.72C53.0868 1.72 52.8668 1.78 52.6028 1.9C52.3788 2.004 52.1948 2.184 52.0508 2.44C51.9068 2.688 51.7948 2.96 51.7148 3.256C51.6348 3.544 51.5708 3.808 51.5228 4.048C51.4828 4.248 51.4428 4.472 51.4028 4.72C51.3708 4.96 51.3548 5.196 51.3548 5.428C51.3548 5.764 51.4068 6.056 51.5108 6.304C51.6148 6.544 51.8108 6.664 52.0988 6.664ZM56.313 6.472C56.385 6.152 56.477 5.768 56.589 5.32C56.709 4.864 56.849 4.404 57.009 3.94C57.169 3.468 57.349 3.04 57.549 2.656C57.749 2.264 57.965 1.972 58.197 1.78C58.341 1.652 58.509 1.572 58.701 1.54C58.893 1.508 59.089 1.488 59.289 1.48C59.473 1.464 59.661 1.444 59.853 1.42C60.053 1.396 60.233 1.332 60.393 1.228L60.513 1.288L59.721 2.26C59.545 2.372 59.377 2.444 59.217 2.476C59.057 2.5 58.909 2.52 58.773 2.536C58.645 2.544 58.517 2.552 58.389 2.56C58.261 2.56 58.141 2.592 58.029 2.656C57.877 2.736 57.725 2.896 57.573 3.136C57.421 3.376 57.265 3.748 57.105 4.252C56.945 4.756 56.773 5.448 56.589 6.328L56.313 6.472ZM55.113 7.12C55.217 6.672 55.337 6.2 55.473 5.704C55.609 5.2 55.733 4.72 55.845 4.264C55.941 3.888 56.017 3.544 56.073 3.232C56.137 2.912 56.169 2.652 56.169 2.452C56.169 2.412 56.169 2.376 56.169 2.344C56.169 2.304 56.165 2.268 56.157 2.236C56.125 2.244 56.089 2.26 56.049 2.284C56.017 2.3 55.981 2.316 55.941 2.332L55.521 2.548L55.485 2.356C55.741 2.22 56.021 2.052 56.325 1.852C56.637 1.652 56.897 1.48 57.105 1.336C57.161 1.424 57.189 1.568 57.189 1.768C57.189 1.984 57.161 2.252 57.105 2.572C57.049 2.884 56.977 3.22 56.889 3.58C56.769 4.1 56.637 4.64 56.493 5.2C56.349 5.752 56.225 6.252 56.121 6.7L55.113 7.12ZM63.1188 3.46L62.9748 3.364C62.9908 3.284 63.0028 3.212 63.0108 3.148C63.0268 3.076 63.0348 3.008 63.0348 2.944C63.0348 2.688 62.9588 2.492 62.8068 2.356C62.6628 2.22 62.4708 2.152 62.2308 2.152C62.0068 2.152 61.7468 2.22 61.4508 2.356L61.3908 2.26C61.7668 2.044 62.1148 1.876 62.4348 1.756C62.7628 1.636 63.0748 1.576 63.3708 1.576H63.4188C63.5068 1.576 63.5508 1.624 63.5508 1.72C63.5508 1.824 63.5308 1.948 63.4908 2.092C63.4508 2.228 63.4068 2.372 63.3588 2.524C63.3268 2.604 63.2988 2.684 63.2748 2.764C63.2508 2.836 63.2308 2.912 63.2148 2.992C63.1588 3.192 63.1268 3.348 63.1188 3.46ZM60.5028 7.012C60.2628 7.012 60.0388 6.976 59.8308 6.904C59.6228 6.832 59.4748 6.704 59.3868 6.52C59.3308 6.408 59.2908 6.28 59.2668 6.136C59.2508 5.984 59.2428 5.828 59.2428 5.668C59.2428 5.38 59.2708 5.076 59.3268 4.756C59.3908 4.428 59.4628 4.128 59.5428 3.856C59.7108 3.312 59.8988 2.896 60.1068 2.608C60.3148 2.32 60.5988 2.112 60.9588 1.984C61.0148 1.968 61.1028 1.936 61.2228 1.888C61.3508 1.84 61.4788 1.792 61.6068 1.744C61.7428 1.688 61.8508 1.648 61.9308 1.624L61.9428 1.768L61.2348 2.152C61.1308 2.208 61.0228 2.336 60.9108 2.536C60.7988 2.728 60.6948 2.96 60.5988 3.232C60.5028 3.504 60.4148 3.784 60.3348 4.072L61.0908 3.712C61.1868 3.688 61.2908 3.676 61.4028 3.676C61.5068 3.676 61.6068 3.684 61.7028 3.7C61.8068 3.716 61.9108 3.732 62.0148 3.748C62.1988 3.772 62.3868 3.784 62.5788 3.784C62.6588 3.784 62.7388 3.78 62.8188 3.772C62.9068 3.764 62.9908 3.752 63.0708 3.736L63.1188 3.82L62.0028 4.372C61.9548 4.38 61.9068 4.388 61.8588 4.396C61.8188 4.396 61.7748 4.396 61.7268 4.396C61.5348 4.396 61.3388 4.372 61.1388 4.324C60.9468 4.276 60.7548 4.252 60.5628 4.252C60.5148 4.252 60.4668 4.252 60.4188 4.252C60.3788 4.252 60.3348 4.26 60.2868 4.276C60.2468 4.468 60.2108 4.656 60.1788 4.84C60.1548 5.016 60.1428 5.184 60.1428 5.344C60.1428 5.592 60.1788 5.796 60.2508 5.956C60.3548 6.18 60.5068 6.356 60.7068 6.484C60.9068 6.604 61.1268 6.664 61.3668 6.664C61.7188 6.664 62.0668 6.52 62.4108 6.232C62.7548 5.944 63.0028 5.48 63.1548 4.84L63.3228 4.96C63.2508 5.16 63.1748 5.38 63.0948 5.62C63.0148 5.852 62.9428 6.136 62.8788 6.472C62.7988 6.6 62.6988 6.684 62.5788 6.724C62.4588 6.764 62.3228 6.784 62.1708 6.784C62.1148 6.784 62.0508 6.784 61.9788 6.784C61.9068 6.776 61.8348 6.772 61.7628 6.772C61.6508 6.828 61.4748 6.884 61.2348 6.94C61.0028 6.988 60.7588 7.012 60.5028 7.012Z" fill="black"/>
</svg>
